<svg width="1600" height="900" viewBox="0 0 1600 900" fill="none" xmlns="http://www.w3.org/2000/svg">
  <defs>
    <linearGradient id="lg" x1="0" y1="0" x2="1" y2="1">
      <stop stop-color="#22d3ee" stop-opacity="0.25"/>
      <stop offset="0.5" stop-color="#a78bfa" stop-opacity="0.18"/>
      <stop offset="1" stop-color="#22c55e" stop-opacity="0.16"/>
    </linearGradient>
    <pattern id="dots" width="26" height="26" patternUnits="userSpaceOnUse">
      <circle cx="2" cy="2" r="1.2" fill="#e2e8f0" fill-opacity="0.12"/>
    </pattern>
  </defs>

  <rect width="1600" height="900" fill="url(#dots)"/>

  <g stroke="url(#lg)" stroke-width="2" stroke-linecap="round" opacity="0.9">
    <path d="M110 120H520"/>
    <path d="M520 120V260"/>
    <path d="M520 260H770"/>
    <path d="M770 260V160"/>
    <path d="M770 160H1040"/>

    <path d="M220 520H640"/>
    <path d="M640 520V710"/>
    <path d="M640 710H980"/>
    <path d="M980 710V560"/>
    <path d="M980 560H1350"/>

    <path d="M1280 160H1460"/>
    <path d="M1280 160V320"/>
    <path d="M1280 320H1120"/>

    <path d="M140 300V430"/>
    <path d="M140 430H360"/>
    <path d="M360 430V350"/>
    <path d="M360 350H520"/>

    <path d="M1120 400H1450"/>
    <path d="M1120 400V520"/>
    <path d="M1120 520H900"/>
    <path d="M900 520V420"/>
    <path d="M900 420H720"/>
  </g>

  <g fill="#e2e8f0" opacity="0.22">
    <circle cx="110" cy="120" r="5"/>
    <circle cx="520" cy="120" r="5"/>
    <circle cx="520" cy="260" r="5"/>
    <circle cx="770" cy="260" r="5"/>
    <circle cx="770" cy="160" r="5"/>
    <circle cx="1040" cy="160" r="5"/>

    <circle cx="220" cy="520" r="5"/>
    <circle cx="640" cy="520" r="5"/>
    <circle cx="640" cy="710" r="5"/>
    <circle cx="980" cy="710" r="5"/>
    <circle cx="980" cy="560" r="5"/>
    <circle cx="1350" cy="560" r="5"/>

    <circle cx="1280" cy="160" r="5"/>
    <circle cx="1460" cy="160" r="5"/>
    <circle cx="1280" cy="320" r="5"/>
    <circle cx="1120" cy="320" r="5"/>

    <circle cx="140" cy="300" r="5"/>
    <circle cx="140" cy="430" r="5"/>
    <circle cx="360" cy="430" r="5"/>
    <circle cx="360" cy="350" r="5"/>
    <circle cx="520" cy="350" r="5"/>

    <circle cx="1120" cy="400" r="5"/>
    <circle cx="1450" cy="400" r="5"/>
    <circle cx="1120" cy="520" r="5"/>
    <circle cx="900" cy="520" r="5"/>
    <circle cx="900" cy="420" r="5"/>
    <circle cx="720" cy="420" r="5"/>
  </g>
</svg>
