<svg width="1200" height="800" viewBox="0 0 1200 800" fill="none" xmlns="http://www.w3.org/2000/svg">
  <defs>
    <linearGradient id="g" x1="180" y1="120" x2="1040" y2="720" gradientUnits="userSpaceOnUse">
      <stop stop-color="#22d3ee" stop-opacity="0.9"/>
      <stop offset="0.5" stop-color="#a78bfa" stop-opacity="0.75"/>
      <stop offset="1" stop-color="#22c55e" stop-opacity="0.6"/>
    </linearGradient>
    <filter id="glow" x="-20%" y="-20%" width="140%" height="140%" color-interpolation-filters="sRGB">
      <feGaussianBlur stdDeviation="18" result="b"/>
      <feColorMatrix in="b" type="matrix" values="1 0 0 0 0  0 1 0 0 0  0 0 1 0 0  0 0 0 0.55 0"/>
      <feMerge>
        <feMergeNode/>
        <feMergeNode in="SourceGraphic"/>
      </feMerge>
    </filter>
    <pattern id="grid" width="40" height="40" patternUnits="userSpaceOnUse">
      <path d="M 40 0 L 0 0 0 40" stroke="#e2e8f0" stroke-opacity="0.10" stroke-width="1"/>
    </pattern>
  </defs>

  <rect width="1200" height="800" fill="#020617"/>
  <rect width="1200" height="800" fill="url(#grid)"/>

  <g filter="url(#glow)">
    <circle cx="250" cy="180" r="140" fill="#22d3ee" fill-opacity="0.12"/>
    <circle cx="980" cy="170" r="160" fill="#a78bfa" fill-opacity="0.10"/>
    <circle cx="930" cy="650" r="170" fill="#22c55e" fill-opacity="0.08"/>
  </g>

  <g opacity="0.95">
    <rect x="210" y="150" width="780" height="420" rx="28" fill="#0b1220" stroke="#e2e8f0" stroke-opacity="0.12"/>
    <rect x="250" y="190" width="700" height="340" rx="22" fill="#020617" stroke="#e2e8f0" stroke-opacity="0.10"/>

    <path d="M280 240H760" stroke="url(#g)" stroke-width="8" stroke-linecap="round"/>
    <path d="M280 285H640" stroke="#94a3b8" stroke-opacity="0.6" stroke-width="6" stroke-linecap="round"/>
    <path d="M280 328H700" stroke="#94a3b8" stroke-opacity="0.38" stroke-width="6" stroke-linecap="round"/>

    <g opacity="0.85">
      <path d="M320 420H880" stroke="#22d3ee" stroke-opacity="0.35" stroke-width="4" stroke-linecap="round"/>
      <path d="M320 458H780" stroke="#a78bfa" stroke-opacity="0.28" stroke-width="4" stroke-linecap="round"/>
      <path d="M320 496H820" stroke="#22c55e" stroke-opacity="0.22" stroke-width="4" stroke-linecap="round"/>
    </g>

    <path d="M170 585H1030" stroke="#e2e8f0" stroke-opacity="0.18" stroke-width="10" stroke-linecap="round"/>
    <path d="M130 610C260 680 920 680 1070 610" stroke="#e2e8f0" stroke-opacity="0.12" stroke-width="18" stroke-linecap="round"/>

    <g>
      <path d="M770 420L820 370" stroke="url(#g)" stroke-width="8" stroke-linecap="round"/>
      <circle cx="835" cy="355" r="22" fill="#020617" stroke="#22d3ee" stroke-opacity="0.5" stroke-width="4"/>
      <path d="M835 355L848 346" stroke="#22d3ee" stroke-opacity="0.75" stroke-width="4" stroke-linecap="round"/>
      <path d="M835 355L842 368" stroke="#22d3ee" stroke-opacity="0.75" stroke-width="4" stroke-linecap="round"/>
    </g>

    <g opacity="0.75">
      <circle cx="335" cy="575" r="6" fill="#e2e8f0" fill-opacity="0.28"/>
      <circle cx="365" cy="575" r="6" fill="#e2e8f0" fill-opacity="0.28"/>
      <circle cx="395" cy="575" r="6" fill="#e2e8f0" fill-opacity="0.28"/>
      <circle cx="425" cy="575" r="6" fill="#e2e8f0" fill-opacity="0.28"/>
    </g>
  </g>
</svg>
