<svg width="1200" height="800" viewBox="0 0 1200 800" fill="none" xmlns="http://www.w3.org/2000/svg">
  <defs>
    <linearGradient id="g" x1="140" y1="140" x2="1040" y2="700" gradientUnits="userSpaceOnUse">
      <stop stop-color="#22d3ee" stop-opacity="0.85"/>
      <stop offset="0.55" stop-color="#a78bfa" stop-opacity="0.7"/>
      <stop offset="1" stop-color="#22c55e" stop-opacity="0.55"/>
    </linearGradient>
    <filter id="glow" x="-20%" y="-20%" width="140%" height="140%" color-interpolation-filters="sRGB">
      <feGaussianBlur stdDeviation="20" result="b"/>
      <feColorMatrix in="b" type="matrix" values="1 0 0 0 0  0 1 0 0 0  0 0 1 0 0  0 0 0 0.55 0"/>
      <feMerge>
        <feMergeNode/>
        <feMergeNode in="SourceGraphic"/>
      </feMerge>
    </filter>
    <pattern id="diag" width="18" height="18" patternUnits="userSpaceOnUse" patternTransform="rotate(30)">
      <path d="M0 0H18" stroke="#e2e8f0" stroke-opacity="0.08" stroke-width="2"/>
    </pattern>
  </defs>

  <rect width="1200" height="800" fill="#020617"/>
  <rect width="1200" height="800" fill="url(#diag)"/>

  <g filter="url(#glow)">
    <path d="M150 610C320 440 470 370 650 350C830 330 970 390 1110 520" stroke="url(#g)" stroke-width="10" stroke-linecap="round"/>
  </g>

  <g opacity="0.95">
    <rect x="170" y="210" width="860" height="420" rx="30" fill="#0b1220" stroke="#e2e8f0" stroke-opacity="0.12"/>

    <g>
      <rect x="230" y="270" width="520" height="220" rx="22" fill="#020617" stroke="#e2e8f0" stroke-opacity="0.10"/>
      <rect x="260" y="304" width="460" height="18" rx="9" fill="#22d3ee" fill-opacity="0.16"/>
      <rect x="260" y="338" width="360" height="14" rx="7" fill="#a78bfa" fill-opacity="0.14"/>
      <rect x="260" y="366" width="420" height="14" rx="7" fill="#22c55e" fill-opacity="0.12"/>
      <rect x="260" y="408" width="320" height="12" rx="6" fill="#94a3b8" fill-opacity="0.18"/>
      <rect x="260" y="434" width="400" height="12" rx="6" fill="#94a3b8" fill-opacity="0.12"/>
    </g>

    <g>
      <rect x="780" y="270" width="190" height="220" rx="22" fill="#020617" stroke="#e2e8f0" stroke-opacity="0.10"/>
      <path d="M840 320L910 390" stroke="url(#g)" stroke-width="10" stroke-linecap="round"/>
      <path d="M910 320L840 390" stroke="url(#g)" stroke-width="10" stroke-linecap="round"/>
      <circle cx="875" cy="355" r="58" stroke="#e2e8f0" stroke-opacity="0.10" stroke-width="10"/>
      <circle cx="875" cy="355" r="44" stroke="#22d3ee" stroke-opacity="0.22" stroke-width="6"/>
    </g>

    <g opacity="0.9">
      <rect x="230" y="520" width="740" height="70" rx="18" fill="#020617" stroke="#e2e8f0" stroke-opacity="0.10"/>
      <path d="M270 555H520" stroke="#22d3ee" stroke-opacity="0.35" stroke-width="8" stroke-linecap="round"/>
      <path d="M560 555H820" stroke="#a78bfa" stroke-opacity="0.25" stroke-width="8" stroke-linecap="round"/>
      <path d="M860 555H930" stroke="#22c55e" stroke-opacity="0.22" stroke-width="8" stroke-linecap="round"/>
    </g>

    <g opacity="0.7">
      <circle cx="260" cy="250" r="6" fill="#22c55e"/>
      <circle cx="286" cy="250" r="6" fill="#f59e0b"/>
      <circle cx="312" cy="250" r="6" fill="#ef4444"/>
    </g>
  </g>
</svg>
